<?xml version="1.0" encoding="UTF-8" standalone="no"?>
<!-- Created with Inkscape (http://www.inkscape.org/) -->

<svg
   version="1.1"
   id="svg1"
   width="1024"
   height="1024"
   viewBox="0 0 1024 1024"
   sodipodi:docname="Pyrus_logo.svg"
   inkscape:version="1.4.2 (ebf0e940, 2025-05-08)"
   xmlns:inkscape="http://www.inkscape.org/namespaces/inkscape"
   xmlns:sodipodi="http://sodipodi.sourceforge.net/DTD/sodipodi-0.dtd"
   xmlns="http://www.w3.org/2000/svg"
   xmlns:svg="http://www.w3.org/2000/svg">
  <defs
     id="defs1" />
  <sodipodi:namedview
     id="namedview1"
     pagecolor="#ffffff"
     bordercolor="#000000"
     borderopacity="0.25"
     inkscape:showpageshadow="2"
     inkscape:pageopacity="0.0"
     inkscape:pagecheckerboard="0"
     inkscape:deskcolor="#d1d1d1"
     inkscape:zoom="0.26523431"
     inkscape:cx="235.6407"
     inkscape:cy="554.22694"
     inkscape:window-width="1288"
     inkscape:window-height="845"
     inkscape:window-x="0"
     inkscape:window-y="38"
     inkscape:window-maximized="0"
     inkscape:current-layer="g1" />
  <g
     inkscape:groupmode="layer"
     inkscape:label="Image"
     id="g1">
    <path
       style="fill:#395c6f;fill-opacity:0.996078"
       d="m 640.9757,808.51298 c -20.87929,-5.1335 -35.333,-19.8764 -38.33022,-39.0971 -0.55926,-3.5864 -1.01698,-24.5415 -1.02114,-46.75 l -0.008,-40.25 h 10.94078 10.94077 l 0.34998,42.25 c 0.39658,47.8745 0.38055,47.7655 8.33107,56.6084 6.05566,6.7354 12.44817,9.3831 23.9374,9.9148 7.55645,0.3497 9.95426,0.057 14.94942,-1.8248 7.955,-2.9968 14.80655,-9.4779 17.7663,-16.8055 2.22817,-5.5164 2.28604,-6.5897 2.582,-47.8929 l 0.30274,-42.25 h 10.44977 10.44977 v 42.2899 c 0,46.5322 -0.22589,48.7254 -6.16648,59.8711 -6.28815,11.7978 -19.50286,21.3901 -33.57625,24.3724 -9.04021,1.9157 -23.11508,1.7232 -31.89835,-0.4363 z m 144.14108,1.1884 c -6.36126,-0.8797 -15.07123,-3.5452 -20.42003,-6.249 -6.15709,-3.1124 -18.07997,-11.5737 -18.07997,-12.8307 0,-0.4391 2.85841,-3.9212 6.35203,-7.7379 l 6.35202,-6.9394 5.57817,4.3035 c 15.8128,12.1995 36.58385,14.5285 48.57389,5.4465 6.27196,-4.7508 8.05489,-14.147 3.86432,-20.3654 -3.12484,-4.6369 -7.88804,-7.1025 -24.22043,-12.5372 -23.70663,-7.8886 -33.74919,-14.1756 -38.61051,-24.1715 -3.48795,-7.172 -3.29509,-19.671 0.42196,-27.3472 8.30636,-17.1539 31.46688,-25.5432 56.18855,-20.3528 7.77013,1.6314 19.15388,6.9283 24.45693,11.38 l 3.45692,2.9019 -5.45692,5.6557 c -3.00131,3.1106 -5.60693,6.0837 -5.79026,6.6068 -0.53245,1.5194 -1.66779,1.1607 -7.845,-2.4786 -8.45036,-4.9786 -16.08692,-6.9015 -25.23669,-6.3548 -13.01446,0.7777 -20.07311,6.2506 -20.08124,15.5698 -0.008,8.607 4.48085,11.7592 28.22487,19.8229 17.77263,6.0358 25.80666,10.3133 31.35504,16.6942 11.60656,13.348 10.57769,33.4539 -2.36488,46.2137 -10.29384,10.1484 -28.89934,15.2338 -46.71877,12.7695 z m -591.5,-64.2855 v -63 l 30.25,0.015 c 23.15296,0.011 31.72083,0.3616 36.51916,1.4929 13.01938,3.0696 22.22642,9.9858 27.08288,20.3444 2.38804,5.0936 2.64614,6.7768 2.62937,17.148 -0.017,10.5298 -0.2538,11.9822 -2.8069,17.2167 -5.27201,10.809 -14.27576,17.6217 -28.17451,21.3181 -3.92411,1.0436 -12.48715,1.7971 -24.75,2.1779 l -18.75,0.5822 v 22.8525 22.8526 h -11 -11 z m 60.27734,-2.9163 c 8.50839,-2.6867 14.72365,-11.4344 14.62462,-20.5837 -0.0686,-6.3401 -1.64956,-10.6959 -5.27705,-14.5393 -5.26766,-5.5811 -8.2812,-6.2841 -28.87491,-6.7363 l -18.75,-0.4117 v 22.1926 22.1926 l 17.25,-0.4607 c 9.4875,-0.2535 18.9498,-0.9975 21.02734,-1.6535 z m 105.72266,41.5447 v -24.3716 l -6.38854,-9.8784 c -13.69947,-21.183 -42.61146,-66.6434 -42.61146,-67.0011 0,-0.2075 5.5125,-0.3549 12.25,-0.3275 l 12.25,0.05 8,13.0615 c 4.4,7.1838 11.54311,18.749 15.87358,25.7003 4.33047,6.9513 8.57632,14.1012 9.43522,15.8887 1.84403,3.8377 2.70383,4.0371 4.31293,1 0.65564,-1.2375 3.07834,-5.175 5.38376,-8.75 2.30543,-3.575 9.95996,-15.6125 17.01007,-26.75 l 12.81839,-20.25 h 11.33303 c 6.23316,0 11.33302,0.2909 11.33302,0.6465 0,0.3556 -1.51076,2.9431 -3.35726,5.75 -1.84649,2.8069 -9.55878,14.7785 -17.13841,26.6035 -7.57963,11.825 -17.09386,26.5776 -21.14274,32.7835 l -7.36159,11.2835 v 24.4665 24.4665 h -11 -11 z m 103,-38.7112 v -63.0828 l 32.75,0.3697 c 31.03895,0.3503 33.08527,0.4887 39.16708,2.6497 11.46613,4.0741 18.22106,9.9954 22.98244,20.1462 3.57193,7.6151 3.63339,21.5493 0.13439,30.469 -3.7092,9.4557 -13.63545,18.0414 -25.33037,21.9097 -2.03611,0.6735 -2.5925,-0.2338 18.77917,30.6213 6.66673,9.625 12.46197,18.0625 12.87832,18.75 0.58955,0.9735 -1.98528,1.25 -11.63977,1.25 h -12.39678 l -15.38411,-22.9595 c -10.60541,-15.8277 -16.0141,-23.0497 -17.41224,-23.25 -1.11547,-0.1598 -6.64063,-0.149 -12.27813,0.024 l -10.25,0.3143 v 22.9357 22.9357 h -11 -11 z m 61.5,-3.7699 c 9.65753,-4.3546 13.5,-9.99 13.5,-19.7994 0,-7.0896 -2.70127,-12.9892 -7.4044,-16.1714 -6.21114,-4.2026 -11.71485,-5.1765 -29.25453,-5.1765 h -16.34107 v 22.1135 22.1134 l 17.25,-0.4126 c 15.21908,-0.364 17.83867,-0.678 22.25,-2.667 z m -89.5,-343.74162 c 0,-185.1782 0.18686,-212.54792 1.44782,-212.06404 0.79629,0.30556 11.70879,7.69344 24.25,16.41749 12.5412,8.72406 27.97718,19.39086 34.30218,23.70399 30.69951,20.93459 50.84642,35.57054 56.19612,40.82429 6.96014,6.83532 14.82738,18.51484 17.8538,26.50536 4.63703,12.24289 4.98631,17.95478 4.7094,77.01378 l -0.25932,55.30651 -16.5,-11.19668 c -9.075,-6.15817 -20.83147,-14.26417 -26.1255,-18.01332 -11.97521,-8.48067 -15.83921,-10.37968 -19.33487,-9.50233 -5.74028,1.44072 -5.55959,-2.3277 -5.53039,115.33817 l 0.0267,107.7611 -35.51798,0.2627 -35.51799,0.2626 z m 102.7608,124.54212 c 0.17387,-58.7035 0.59595,-87.84532 1.26631,-87.43101 0.55303,0.34179 0.70365,1.10988 0.3347,1.70685 -0.38405,0.6214 -0.2088,0.79986 0.40994,0.41746 0.59442,-0.36737 6.17645,2.8516 12.40451,7.15328 6.22806,4.30167 16.83029,11.54286 23.56051,16.09153 13.86359,9.36982 21.40307,17.01501 26.57156,26.9441 6.43744,12.36689 6.69167,15.10679 6.69167,72.11739 v 51.0526 l -35.75,10e-5 -35.75,10e-5 z"
       id="path1" />
  </g>
</svg>
